<svg xmlns="http://www.w3.org/2000/svg" width="512" height="512" viewBox="0 0 512 512">
  <defs>
    <linearGradient id="bg" x1="0" y1="0" x2="1" y2="1">
      <stop offset="0" stop-color="#23232a"/>
      <stop offset="1" stop-color="#15151a"/>
    </linearGradient>
  </defs>
  <!-- Full-bleed background: the platform applies its own mask shape. -->
  <rect width="512" height="512" fill="url(#bg)"/>
  <!-- Glyph scaled to ~64% and centred so it stays inside the maskable safe zone. -->
  <g transform="translate(256 256) scale(0.62) translate(-256 -256)">
    <g fill="#2dd4bf">
      <circle cx="180" cy="150" r="34"/>
      <path d="M150 200h60a22 22 0 0 1 22 22v96a16 16 0 0 1-32 0v-70h-8v158a20 20 0 0 1-40 0v-158h-8v70a16 16 0 0 1-32 0v-96a22 22 0 0 1 22-22z"/>
      <circle cx="332" cy="150" r="34"/>
      <path d="M332 196c20 0 33 12 39 34l20 74a15 15 0 0 1-29 8l-14-52h-6l28 96h-30v122a20 20 0 0 1-40 0v-122h-30l28-96h-6l-14 52a15 15 0 0 1-29-8l20-74c6-22 19-34 39-34z"/>
    </g>
    <rect x="252" y="118" width="8" height="300" rx="4" fill="#0c0c0f"/>
  </g>
</svg>
